<?xml version="1.0" encoding="UTF-8"?>
<svg width="207px" height="65px" viewBox="0 0 207 65" version="1.1" xmlns="http://www.w3.org/2000/svg" xmlns:xlink="http://www.w3.org/1999/xlink">
    <!-- Generator: Sketch 59.1 (86144) - https://sketch.com -->
    <title>Rectangle</title>
    <desc>Created with Sketch.</desc>
    <defs>
        <path d="M20.336,56.288 C16.4959808,56.288 13.076015,55.4120088 10.076,53.66 C7.075985,51.9079912 4.72400852,49.532015 3.02,46.532 C1.31599148,43.531985 0.464,40.136019 0.464,36.344 C0.464,32.4559806 1.3039916,29.0000151 2.984,25.976 C4.6640084,22.9519849 6.96798536,20.5880085 9.896,18.884 C12.8240146,17.1799915 16.183981,16.328 19.976,16.328 C22.8080142,16.328 25.3999882,16.8679946 27.752,17.948 C30.1040118,19.0280054 32.2159906,20.6479892 34.088,22.808 C34.7600034,23.5760038 35.000001,24.3679959 34.808,25.184 C34.615999,26.0000041 34.0880043,26.7199969 33.224,27.344 C32.5519966,27.8240024 31.8080041,27.9800008 30.992,27.812 C30.1759959,27.6439992 29.4320034,27.2240034 28.76,26.552 C26.4079882,24.0559875 23.4800175,22.808 19.976,22.808 C17.5279878,22.808 15.3680094,23.3719944 13.496,24.5 C11.6239906,25.6280056 10.1600053,27.1999899 9.104,29.216 C8.04799472,31.2320101 7.52,33.6079863 7.52,36.344 C7.52,38.936013 8.0599946,41.2399899 9.14,43.256 C10.2200054,45.2720101 11.7199904,46.8679941 13.64,48.044 C15.5600096,49.2200059 17.7919873,49.808 20.336,49.808 C22.0160084,49.808 23.4919936,49.604002 24.764,49.196 C25.9088057,48.8287982 26.9661169,48.2769231 27.9359589,47.540361 L28.256,47.288 C29.0240038,46.6639969 29.8159959,46.3160004 30.632,46.244 C31.4480041,46.1719996 32.1679969,46.3999974 32.792,46.928 C33.6080041,47.6000034 34.0639995,48.3559958 34.16,49.196 C34.2560005,50.0360042 33.9680034,50.7919966 33.296,51.464 C29.8399827,54.6800161 25.5200259,56.288 20.336,56.288 Z M54.144,56 C53.0879947,56 52.2120035,55.6520035 51.516,54.956 C50.8199965,54.2599965 50.472,53.3840053 50.472,52.328 L50.472,20.288 C50.472,19.1839945 50.8199965,18.2960034 51.516,17.624 C52.2120035,16.9519966 53.0879947,16.616 54.144,16.616 C55.2480055,16.616 56.1359966,16.9519966 56.808,17.624 C57.4800034,18.2960034 57.816,19.1839945 57.816,20.288 L57.816,52.328 C57.816,53.3840053 57.4800034,54.2599965 56.808,54.956 C56.1359966,55.6520035 55.2480055,56 54.144,56 Z M54.144,10.208 C52.8479935,10.208 51.7320047,9.74000468 50.796,8.804 C49.8599953,7.86799532 49.392,6.75200648 49.392,5.456 C49.392,4.15999352 49.8599953,3.04400468 50.796,2.108 C51.7320047,1.17199532 52.8479935,0.704 54.144,0.704 C55.4400065,0.704 56.5559953,1.17199532 57.492,2.108 C58.4280047,3.04400468 58.896,4.15999352 58.896,5.456 C58.896,6.75200648 58.4280047,7.86799532 57.492,8.804 C56.5559953,9.74000468 55.4400065,10.208 54.144,10.208 Z M79.024,31.376 C79.024,28.4959856 79.7319929,25.9160114 81.148,23.636 C82.5640071,21.3559886 84.471988,19.5440067 86.872,18.2 C89.272012,16.8559933 91.9119856,16.184 94.792,16.184 C97.6720144,16.184 99.8199929,16.6519953 101.236,17.588 C102.584578,18.479433 103.138587,19.534117 102.898041,20.7520808 L102.856,20.936 C102.711999,21.6080034 102.436002,22.1239982 102.028,22.484 C101.619998,22.8440018 101.152003,23.0719995 100.624,23.168 C100.095997,23.2640005 99.5200031,23.2400007 98.896,23.096 C95.8239846,22.4719969 93.0640122,22.4239974 90.616,22.952 C88.1679878,23.4800026 86.2360071,24.4639928 84.82,25.904 C83.4039929,27.3440072 82.696,29.167989 82.696,31.376 L79.024,31.376 Z M79.096,56 C77.9439942,56 77.0560031,55.700003 76.432,55.1 C75.8079969,54.499997 75.496,53.600006 75.496,52.4 L75.496,20.216 C75.496,19.0639942 75.8079969,18.1760031 76.432,17.552 C77.0560031,16.9279969 77.9439942,16.616 79.096,16.616 C80.296006,16.616 81.195997,16.915997 81.796,17.516 C82.396003,18.116 82.696,19.015994 82.696,20.216 L82.696,52.4 C82.696,53.5520058 82.396003,54.4399969 81.796,55.064 C81.195997,55.6880031 80.296006,56 79.096,56 Z M129.464,56.288 C125.623981,56.288 122.204015,55.4120088 119.204,53.66 C116.203985,51.9079912 113.852009,49.532015 112.148,46.532 C110.443991,43.531985 109.592,40.136019 109.592,36.344 C109.592,32.4559806 110.431992,29.0000151 112.112,25.976 C113.792008,22.9519849 116.095985,20.5880085 119.024,18.884 C121.952015,17.1799915 125.311981,16.328 129.104,16.328 C131.936014,16.328 134.527988,16.8679946 136.88,17.948 C139.232012,19.0280054 141.343991,20.6479892 143.216,22.808 C143.888003,23.5760038 144.128001,24.3679959 143.936,25.184 C143.743999,26.0000041 143.216004,26.7199969 142.352,27.344 C141.679997,27.8240024 140.936004,27.9800008 140.12,27.812 C139.303996,27.6439992 138.560003,27.2240034 137.888,26.552 C135.535988,24.0559875 132.608018,22.808 129.104,22.808 C126.655988,22.808 124.496009,23.3719944 122.624,24.5 C120.751991,25.6280056 119.288005,27.1999899 118.232,29.216 C117.175995,31.2320101 116.648,33.6079863 116.648,36.344 C116.648,38.936013 117.187995,41.2399899 118.268,43.256 C119.348005,45.2720101 120.84799,46.8679941 122.768,48.044 C124.68801,49.2200059 126.919987,49.808 129.464,49.808 C131.144008,49.808 132.619994,49.604002 133.892,49.196 C135.036806,48.8287982 136.094117,48.2769231 137.063959,47.540361 L137.384,47.288 C138.152004,46.6639969 138.943996,46.3160004 139.76,46.244 C140.576004,46.1719996 141.295997,46.3999974 141.92,46.928 C142.736004,47.6000034 143.192,48.3559958 143.288,49.196 C143.384,50.0360042 143.096003,50.7919966 142.424,51.464 C138.967983,54.6800161 134.648026,56.288 129.464,56.288 Z M175.296,56.288 C171.791982,56.288 168.648014,55.4120088 165.864,53.66 C163.079986,51.9079912 160.884008,49.532015 159.276,46.532 C157.667992,43.531985 156.864,40.136019 156.864,36.344 C156.864,32.551981 157.739991,29.1440151 159.492,26.12 C161.244009,23.0959849 163.619985,20.7080088 166.62,18.956 C169.620015,17.2039912 172.991981,16.328 176.736,16.328 C180.480019,16.328 183.839985,17.2039912 186.816,18.956 C189.792015,20.7080088 192.155991,23.0959849 193.908,26.12 C195.660009,29.1440151 196.536,32.551981 196.536,36.344 L193.728,36.344 C193.728,40.136019 192.924008,43.531985 191.316,46.532 C189.707992,49.532015 187.512014,51.9079912 184.728,53.66 C181.943986,55.4120088 178.800018,56.288 175.296,56.288 Z M176.736,49.808 C179.184012,49.808 181.36799,49.2200059 183.288,48.044 C185.20801,46.8679941 186.719994,45.2600102 187.824,43.22 C188.928006,41.1799898 189.48,38.8880127 189.48,36.344 C189.48,33.751987 188.928006,31.4360102 187.824,29.396 C186.719994,27.3559898 185.20801,25.7480059 183.288,24.572 C181.36799,23.3959941 179.184012,22.808 176.736,22.808 C174.335988,22.808 172.16401,23.3959941 170.22,24.572 C168.27599,25.7480059 166.740006,27.3559898 165.612,29.396 C164.483994,31.4360102 163.92,33.751987 163.92,36.344 C163.92,38.8880127 164.483994,41.1799898 165.612,43.22 C166.740006,45.2600102 168.27599,46.8679941 170.22,48.044 C172.16401,49.2200059 174.335988,49.808 176.736,49.808 Z M192.864,56.072 C191.807995,56.072 190.932003,55.7240035 190.236,55.028 C189.539997,54.3319965 189.192,53.4560053 189.192,52.4 L189.192,41.384 L190.56,33.752 L196.536,36.344 L196.536,52.4 C196.536,53.4560053 196.188003,54.3319965 195.492,55.028 C194.795997,55.7240035 193.920005,56.072 192.864,56.072 Z" id="path-1"></path>
        <filter x="-4.6%" y="-10.8%" width="109.2%" height="132.4%" filterUnits="objectBoundingBox" id="filter-3">
            <feOffset dx="0" dy="3" in="SourceAlpha" result="shadowOffsetOuter1"></feOffset>
            <feGaussianBlur stdDeviation="2.5" in="shadowOffsetOuter1" result="shadowBlurOuter1"></feGaussianBlur>
            <feColorMatrix values="0 0 0 0 0   0 0 0 0 0   0 0 0 0 0  0 0 0 0.166794143 0" type="matrix" in="shadowBlurOuter1"></feColorMatrix>
        </filter>
        <linearGradient x1="21.6046757%" y1="57.4343209%" x2="81.0456436%" y2="48.6389386%" id="linearGradient-4">
            <stop stop-color="#1200FF" offset="0%"></stop>
            <stop stop-color="#13BFA9" offset="100%"></stop>
        </linearGradient>
        <linearGradient x1="21.6046757%" y1="57.4343209%" x2="80.8762067%" y2="48.6640099%" id="linearGradient-5">
            <stop stop-color="#5D13BF" offset="0%"></stop>
            <stop stop-color="#E21EB0" offset="100%"></stop>
        </linearGradient>
    </defs>
    <g id="Page-1" stroke="none" stroke-width="1" fill="none" fill-rule="evenodd">
        <g id="Logotypw">
            <g id="Rectangle" transform="translate(5.000000, 1.000000)">
                <g id="Rectangle-+-Rectangle-+-Rectangle-Mask">
                    <mask id="mask-2" fill="white">
                        <use xlink:href="#path-1"></use>
                    </mask>
                    <g id="Mask" fill-rule="nonzero">
                        <use fill="black" fill-opacity="1" filter="url(#filter-3)" xlink:href="#path-1"></use>
                        <use fill="#000000" xlink:href="#path-1"></use>
                    </g>
                    <rect id="Rectangle" fill="url(#linearGradient-4)" mask="url(#mask-2)" x="-9" y="0" width="213" height="61"></rect>
                    <rect id="Rectangle" fill="url(#linearGradient-5)" mask="url(#mask-2)" x="-9" y="0" width="213" height="61"></rect>
                </g>
            </g>
        </g>
    </g>
</svg>